<?xml version="1.0" encoding="utf-8"?>
<!-- Generator: Adobe Illustrator 27.5.0, SVG Export Plug-In . SVG Version: 6.00 Build 0)  -->
<svg version="1.1" id="Capa_1" xmlns="http://www.w3.org/2000/svg" xmlns:xlink="http://www.w3.org/1999/xlink" x="0px" y="0px"
	 viewBox="0 0 1898 2372" style="enable-background:new 0 0 1898 2372;" xml:space="preserve">
<g>
	<g>
		<g>
			<g>
				<path style="fill:#F8A898;" d="M787.13,842.506c-32.024-17.493-40.499,20.702-50.016,42.229
					c-12.926,29.221-54.325,124.116-60.583,131.165c-6.248,7.046-12.12,15.625-22.469,21.873
					c-11.951,7.214-20.688,14.881-27.911,26.776c-2.68,4.398-6.613,13.394-4.113,15.734c4.396,4.12,7.397,0.079,11.979-7.223
					c1.253-1.996,6.722-6.594,9.031-10.796c-3.464,14.007-22.693,32.315-25.645,49.537c-1.787,10.445-0.055,17.46,11.504,18.493
					c14.152,1.266,14.821-10.587,24.621-17.169c3.938-2.653,12.583-2.855,20.579-16.162c4.477-7.447,8.917-16.916,11.374-25.131
					c3.148-10.48,6.874-24.733,10.491-32.345c3.612-7.615,76.293-103.561,88.385-130.672
					C798.684,876.706,800.013,849.536,787.13,842.506z"/>
			</g>
			<g>
				<path style="fill:#F8A898;" d="M850.263,612.037c-52.941-5.725-49.978,85.997-59.151,118.906
					c-8.748,31.373-26.038,86.106-36.453,116.773c-6.449,18.967-14.348,30.224,2.582,43.983c16.935,13.76,30.755,3.865,35.984-8.168
					c18.292-42.068,67.817-182.096,75.47-221.032C877.014,620.2,850.263,612.037,850.263,612.037z"/>
			</g>
		</g>
	</g>
	<path style="fill:#CBC7CE;" d="M771.96,758.448c5.801-18.607,15.208-42.289,18.052-52.456
		c8.89-31.953,6.891-107.598,64.494-107.015c0,0,32.607,25.381,24.534,66.45c-4.227,21.489-21.974,76.483-38.359,127.929
		C810.624,791.469,795.219,777.84,771.96,758.448z"/>
	<path style="fill:#142046;" d="M841.901,2028.929c-9.609,7.863-25.395,25.653-55.85,44.476
		c-12.027,7.111-21.587,14.083-22.328,17.515c-2.195,10.033,14.152,10.712,21.832,9.87c19.566-2.141,37.482-10.763,55.931-14.958
		c9.413-2.138,30.156-4.944,36.197-13.46c6.466-9.122,4.058-26.062-1.585-34.9C854.375,2051.728,841.901,2028.929,841.901,2028.929z
		"/>
	<path style="fill:#142046;" d="M1014.87,2028.929c14.833,13.101,55.855,44.476,55.855,44.476
		c12.027,7.111,21.576,14.083,22.328,17.515c2.195,10.033-14.163,10.712-21.837,9.87c-19.572-2.141-37.477-10.763-55.937-14.958
		c-9.413-2.138-30.15-4.944-36.185-13.46c-6.482-9.122-4.036-26.307,1.602-35.142
		C1002.631,2043.478,1014.87,2028.929,1014.87,2028.929z"/>
	<g>
		<g>
			<g>
				<path style="fill:#F9AF94;" d="M833.839,1528.311c6.722,39.47,20.275,46.443,50.762,48.238
					c30.483,1.797,16.903-4.777,20.612-35.663c-0.283-15.157,24.986-258.598,26.991-273.752
					c14.892-112.947,21.315-187.799,21.315-187.799l-1.182-151.902H849.054c-11.848,42.063-40.947,149.824-40.947,244.136
					C808.107,1317.354,831.448,1505.85,833.839,1528.311z"/>
			</g>
			<g>
				<path style="fill:#F9AF94;" d="M1046.818,1528.311c-6.711,39.47-20.268,46.443-50.751,48.238
					c-30.482,1.797-16.908-4.777-20.606-35.663c0.267-15.157-24.997-258.598-26.996-273.752
					c-14.892-112.947-21.325-187.799-21.325-187.799l-96.883-78.215l18.799-73.687h182.561
					c11.848,42.063,40.941,149.824,40.941,244.136C1072.556,1317.354,1049.22,1505.85,1046.818,1528.311z"/>
			</g>
		</g>
	</g>
	<g>
		<path style="fill:#F8A898;" d="M1021.843,590.646c-4.717,0.006-52.554-35.085-30.956-122.782l-10.366-12.953
			c-24.708,6.18-83.548,6.024-72.66,30.719c42.864,97.201-30.727,110.473-34.486,110.473c-16.962,0-13.89,124.579,53.301,124.579
			c67.196,0,86.985-104.471,91.082-113.372C1022.442,597.152,1021.843,590.646,1021.843,590.646z"/>
		<path style="fill:#DAD6D2;" d="M993.801,556.166c-8.236-19.763-12.687-48.635-2.915-88.301l-8.585-10.725
			c-26.462,4.559-53.175,9.772-75.552,20.895c-0.441,2.236-0.147,4.742,1.111,7.596c8.471,19.203,12.077,35.409,13.242,48.937
			c10.459,0.583,22.464-0.43,33.315,1.296C970.302,538.394,984.334,547.995,993.801,556.166z"/>
	</g>
	<g>
		<path style="fill:#F8A898;" d="M995.762,382.842c-14.424-34.017-42.607-38.25-42.607-38.25
			c-5.725-1.324-11.472-2.348-17.137-3.012v-0.64c-1.138,0.074-2.271,0.199-3.41,0.302c-1.133-0.103-2.272-0.229-3.399-0.302v0.64
			c-5.676,0.664-11.417,1.689-17.137,3.012c0,0-28.183,4.232-42.618,38.25c-9.195,21.694-4.456,31.752-3.181,52.171
			c1.22,19.446,0.583,23.344,4.091,39.154c4.483,20.149,21.435,36.88,38.811,49.458c8.051,5.284,15.917,7.296,23.434,6.951
			c7.522,0.346,15.393-1.667,23.433-6.951c17.387-12.578,34.339-29.309,38.811-49.458c3.514-15.81,2.877-19.708,4.091-39.154
			C1000.218,414.594,1004.967,404.536,995.762,382.842z"/>
	</g>
	<g>
		<path style="fill:#516EB5;" d="M825.489,1694.221c0.899,71.328-5.834,293.719-10.78,351.573c0,0,19.893,12.7,53.687,11.292
			c33.805-1.411,40.353-18.349,40.353-18.349c6.259-78.243,0.904-286.904,4.892-345.633c5.382-79.221-3.203-214.147-3.203-214.147
			s-20.688,13.743-37.901,11.597c-22.137-2.764-42.281-24.943-42.281-24.943S824.46,1612.677,825.489,1694.221z"/>
		<path style="fill:#516EB5;" d="M967.028,1693.104c4.025,59.24-4.598,268.929,1.16,347.049c0,0,7.386,12.697,37.019,12.697
			c29.643,0,53.633-12.697,53.633-12.697c-1.449-67.033-4.564-274.855-3.66-345.932c1.035-81.544-1.394-228.609-1.394-228.609
			s-23.526,22.178-45.658,24.943c-17.213,2.146-36.572,2.449-36.572,2.449S961.646,1613.883,967.028,1693.104z"/>
		<g>
			<g>
				<path style="fill:#516EB5;" d="M833.839,1528.311c6.722,39.47,20.275,46.443,50.762,48.238
					c30.483,1.797,16.903-4.777,20.612-35.663c-0.283-15.157,24.986-258.598,26.991-273.752
					c14.892-112.947,21.315-187.799,21.315-187.799l-1.182-151.902H849.054c-11.848,42.063-40.947,149.824-40.947,244.136
					C808.107,1317.354,831.448,1505.85,833.839,1528.311z"/>
				<path style="fill:#516EB5;" d="M1046.818,1528.311c-6.711,39.47-20.268,46.443-50.751,48.238
					c-30.482,1.797-16.908-4.777-20.606-35.663c0.267-15.157-24.997-258.598-26.996-273.752
					c-14.892-112.947-21.325-187.799-21.325-187.799l-96.883-78.215l18.799-73.687h182.561
					c11.848,42.063,40.941,149.824,40.941,244.136C1072.556,1317.354,1049.22,1505.85,1046.818,1528.311z"/>
			</g>
		</g>
	</g>
	<path style="fill:#D2CED4;" d="M837.979,927.432l42.346,3.805c30.406,8.391,58.317,27.366,72.327,54.641
		c16.45,32.037,29.044,69.459,57.163,93.598c14.217,12.204,38.446,30.91,61.144,35.638c-3.525-67.063-32.754-266.775-28.026-309.15
		c14.097-126.219,36.561-181.355,31.991-194.97c-4.042-12.055-22.094-17.009-53.082-20.348c0,0-35.821,64.715-98.299,64.715
		c-62.49,0-45.113-60.186-50.169-59.257c-8.187,1.504-19.74,2.835-19.74,2.835c-5.382,4.726-38.936,20.985-37.869,226.697
		C816.028,878.052,808.244,913.88,837.979,927.432z"/>
	<path style="fill:#DAD6D2;" d="M1042.934,805.964c10.219-91.452,24.817-145.567,30.346-173.628c0-0.024-9.2,1.329-13.667,2.759
		c0,0-41.279,24.926-41.29,24.929c8.738,89.655-9.108,100.511,8.738,253.451c12.261,105.045,42.205,201.286,43.899,201.64
		C1067.435,1048.052,1038.206,848.34,1042.934,805.964z"/>
	<g>
		<g>
			<g>
				<path style="fill:#F8A898;" d="M1110.228,837.108c32.04-17.494,40.505,20.696,50.021,42.224
					c12.926,29.224,54.324,124.116,60.583,131.165c6.248,7.052,12.115,15.625,22.469,21.873
					c11.951,7.218,20.688,14.887,27.911,26.776c2.68,4.399,6.613,13.398,4.113,15.737c-4.401,4.124-7.402,0.082-11.978-7.223
					c-1.253-1.999-6.722-6.596-9.032-10.794c3.464,14.008,22.693,32.315,25.645,49.534c1.787,10.445,0.055,17.458-11.51,18.493
					c-14.146,1.264-14.816-10.589-24.616-17.169c-3.938-2.656-12.583-2.854-20.585-16.165c-4.472-7.443-8.912-16.91-11.368-25.127
					c-3.148-10.48-6.874-24.736-10.491-32.346c-3.617-7.615-76.293-103.564-88.391-130.669
					C1098.68,871.305,1097.351,844.135,1110.228,837.108z"/>
			</g>
			<g>
				<path style="fill:#F8A898;" d="M1047.101,606.636c52.946-5.725,49.978,86,59.151,118.909
					c8.748,31.367,26.038,86.103,36.453,116.771c6.449,18.967,14.347,30.223-2.582,43.983c-16.941,13.76-30.755,3.862-35.984-8.165
					c-18.292-42.068-67.817-182.101-75.47-221.035C1020.35,614.801,1047.101,606.636,1047.101,606.636z"/>
			</g>
		</g>
	</g>
	<path style="fill:#DFDBE1;" d="M1125.404,753.05c-5.796-18.61-15.209-42.289-18.041-52.458
		c-8.906-31.953-6.906-107.598-64.51-107.015c0,0-32.601,25.381-24.529,66.447c4.227,21.492,21.98,76.486,38.359,127.932
		C1086.745,786.068,1102.145,772.436,1125.404,753.05z"/>
	<g>
		<path style="fill:#F9BBB5;" d="M948.366,484.745c0,0-10.785,3.415-17.932,2.086c-1.716-0.319-3.819,0.687-5.153,2.013
			c-1.857-1.198-3.448-1.876-6.019-0.776c-3.693,1.582-8.242,1.83-8.242,1.83s3.759,1.691,5.224,4.145
			c0.485,0.817-2.174,4.08-0.218,6.427c2.669,3.203,6.711,4.137,12.572,3.255c9.315-1.402,14.37-8.07,16.81-12.177
			C947.102,488.705,948.366,484.745,948.366,484.745z"/>
		<g>
			<g>
				<g>
					<path style="fill:#AF3739;" d="M945.887,427.761c3.964,0.136,6.993-2.937,11.142-2.763c4.162,0.175,8.403,3.473,12.433,1.802
						c1.409-0.585,2.173-1.978,1.395-3.43c-2.209-4.123-9.436-5.615-13.828-5.517c-4.704,0.105-11.384,2.961-12.819,7.707
						C943.874,426.675,944.786,427.723,945.887,427.761L945.887,427.761z"/>
				</g>
			</g>
			<g>
				<g>
					<path style="fill:#AF3739;" d="M903.671,425.56c-1.366-4.519-7.374-7.168-11.818-7.608c-4.598-0.455-12.498,1.063-14.829,5.418
						c-0.777,1.452-0.014,2.845,1.395,3.43c3.615,1.5,7.698-1.055,11.373-1.667c4.661-0.776,7.844,2.778,12.203,2.628
						C903.096,427.723,904.008,426.675,903.671,425.56L903.671,425.56z"/>
				</g>
			</g>
		</g>
		<path style="fill:#F79C87;" d="M982.198,454.001c-12.594-6.798-42.417,16.213-22.671,27.146
			C979.273,492.079,994.792,460.802,982.198,454.001z"/>
		<path style="fill:#F79C87;" d="M867.601,453.593c0.414,6.937,1.018,12.152,3.148,21.729c0.403,1.833,0.953,3.631,1.558,5.404
			c4.701,3.058,10.644,3.968,17.05,0.422C908.646,470.474,880.652,448.282,867.601,453.593z"/>
		<g>
			<g>
				<g>
					<path style="fill:#BDB7B2;" d="M903.971,427.602c1.213,2.327,2.708,4.477,3.979,6.774c1.422,2.571,2.366,5.277,3.491,7.976
						c0.105,0.251,0.546,0.255,0.52-0.07c-0.427-5.455-4.196-10.928-7.938-14.72C903.995,427.534,903.953,427.569,903.971,427.602
						L903.971,427.602z"/>
				</g>
			</g>
			<g>
				<g>
					<path style="fill:#BDB7B2;" d="M914.919,454.124c0.607,6.928-1.944,12.678-2.746,19.346c-0.527,4.382,7.132,4.586,9.8,3.561
						c0.234-0.09,0.146-0.454-0.106-0.383c-2.029,0.57-8.577,0.422-8.475-3.177c0.061-2.152,0.843-4.341,1.385-6.406
						c1.154-4.391,1.321-8.523,0.467-12.984C915.209,453.897,914.902,453.938,914.919,454.124L914.919,454.124z"/>
				</g>
			</g>
		</g>
		<g>
			<path style="fill:#F0EFEE;" d="M911.02,489.953c18.679,4.004,37.346-5.207,37.346-5.207
				c-3.721,11.098-29.094,19.653-32.476,10.835C914.73,492.573,911.02,489.953,911.02,489.953z"/>
		</g>
		<g>
			<g>
				<g>
					<path style="fill:#DAD6D2;" d="M928.19,514.462c2.711-1.501,5.353-1.808,8.372-2.012c0.641-0.043,0.803-0.785,0.311-1.149
						c-3.084-2.28-7.176-0.309-9.638,1.923C926.555,513.841,927.424,514.885,928.19,514.462L928.19,514.462z"/>
				</g>
			</g>
		</g>
		<g>
			<g>
				
					<path style="fill:none;stroke:#540806;stroke-width:1.9484;stroke-linecap:round;stroke-linejoin:round;stroke-miterlimit:10;" d="
					M896.765,443.995c0,0-1.286-4.123-5.916-4.123c-4.619,0-5.371,4.123-5.371,4.123"/>
			</g>
			<g>
				
					<path style="fill:none;stroke:#540806;stroke-width:1.9484;stroke-linecap:round;stroke-linejoin:round;stroke-miterlimit:10;" d="
					M952.348,443.995c0,0,1.286-4.123,5.916-4.123c4.619,0,5.371,4.123,5.371,4.123"/>
			</g>
		</g>
	</g>
	<g>
		<g>
			<g>
				<path style="fill:#B93B3D;" d="M849.145,282.148c-8.861,1.564-16.89,5.285-21.857,13.039c-3.495,5.455-4.516,12.16-2.515,18.305
					c0.13,0.4,0.679,0.23,0.617-0.17c-2.459-15.886,9.226-27.401,23.78-31.086C849.227,282.222,849.202,282.138,849.145,282.148
					L849.145,282.148z"/>
			</g>
		</g>
		<g>
			<g>
				<path style="fill:#B93B3D;" d="M830.638,296.218c-4.585,4.118-4.03,10.355-2.619,15.849c1.449,5.643,4.271,14.155,8.837,17.997
					c0.407,0.342,0.909,0.01,0.839-0.489c-0.701-5.005-4.628-9.761-6.572-14.4c-2.407-5.744-4.794-13.417-0.227-18.698
					C831.05,296.298,830.814,296.06,830.638,296.218L830.638,296.218z"/>
			</g>
		</g>
		<g>
			<g>
				<path style="fill:#B93B3D;" d="M894.208,289.26c0.028-12.498-11.515-18.854-22.646-20.162
					c-5.836-0.686-12.374,1.867-16.81,5.481c-4.134,3.367-7.852,10.245-5.544,15.522c0.257,0.587,1.228,0.547,1.498,0
					c2.186-4.429,2.235-8.738,6.048-12.385c3.641-3.482,9.056-4.938,13.95-5.213c10.972-0.616,22.505,4.275,23.138,16.757
					C893.855,289.494,894.207,289.497,894.208,289.26L894.208,289.26z"/>
			</g>
		</g>
		<path style="fill:#B93B3D;" d="M894.063,315.246c0-3.149-1.83-17.815-4.543-29.368c-2.849-12.136-10.9-14.915-22.818-15.206
			c-12.828-0.311-15.862,11.142-17.545,11.521c-31.157,7.03-20.699,27.522-17.66,34.096c3.868,8.413,13.454,13.631,21.369,17.573
			c5.888,2.938,11.869,4.121,13.884,4.121c0,0,14.953-3.454,20.994-9.203C893.78,323.027,894.063,315.246,894.063,315.246z"/>
	</g>
	<path style="fill:#D04446;" d="M1001.307,304.028c-12.942-12.104-80.765-26.639-118.334,1.026
		c-29.605,21.797-41.725,52.644-39.819,89.17c0.381,7.207,6.896,26.29,8.138,36.569c2.43,20.16,9.13,33.541,19.071,43.373
		c0,0-5.426-36.839,4.406-50.155c9.832-13.313,2.713-45.62,30.352-46.589c31.529-1.106,51.116-16.287,52.233-10.941
		c4.94,23.646,26.533,29.734,27.018,43.412c0.921,25.841,2.74,39.546,9.081,32.563c7.528-8.276,4.232,8.974,4.232,8.974
		s-6.166,12.074-2.337,9.013c-4.924,9.026-5.131,26.519-5.131,26.519c23.379-20.634,39.383-44.71,43.424-77.85
		C1042.466,336.659,1014.118,316.003,1001.307,304.028z"/>
	<g>
		<path style="fill:#F8A898;" d="M992.45,444.485c3.41-13.846,24.724-26.378,27.453-4.606c2.255,17.935-18.411,54.973-27.66,21.113
			L992.45,444.485z"/>
	</g>
	<g>
		<g>
			<g>
				<path style="fill:#E04449;" d="M1029.26,282.237c14.559,3.685,26.244,15.195,23.792,31.086c-0.062,0.4,0.486,0.57,0.616,0.17
					c2.057-6.324,0.798-12.633-2.518-18.305c-4.582-7.837-13.295-11.528-21.865-13.039
					C1029.228,282.138,1029.202,282.222,1029.26,282.237L1029.26,282.237z"/>
			</g>
		</g>
		<g>
			<g>
				<path style="fill:#E04449;" d="M1047.544,296.476c4.636,5.363,2.062,12.87-0.232,18.698c-1.864,4.735-5.864,9.339-6.573,14.4
					c-0.07,0.499,0.433,0.831,0.84,0.489c4.691-3.946,7.149-12.29,8.838-17.997c1.596-5.391,1.864-11.824-2.615-15.849
					C1047.626,296.059,1047.391,296.298,1047.544,296.476L1047.544,296.476z"/>
			</g>
		</g>
		<g>
			<g>
				<path style="fill:#E04449;" d="M984.593,289.26c0.595-11.719,11.554-17.642,22.28-16.779c5.168,0.415,10.031,1.383,14.202,4.707
					c4.408,3.512,4.364,8.276,6.654,12.914c0.27,0.547,1.241,0.587,1.498,0c2.274-5.197-1.251-11.378-4.943-14.987
					c-4.362-4.263-10.619-5.873-16.552-6.02c-11.398-0.282-23.53,8.243-23.503,20.166
					C984.228,289.497,984.581,289.494,984.593,289.26L984.593,289.26z"/>
			</g>
		</g>
		<path style="fill:#E04449;" d="M984.371,315.246c0-3.149,1.825-17.815,4.543-29.368c2.849-12.136,10.9-14.915,22.818-15.206
			c12.834-0.311,15.862,11.142,17.54,11.521c31.163,7.03,20.705,27.522,17.671,34.096c-3.878,8.413-13.455,13.631-21.375,17.573
			c-5.894,2.938-11.875,4.121-13.88,4.121c0,0-14.958-3.454-20.999-9.203C984.655,323.027,984.371,315.246,984.371,315.246z"/>
	</g>
</g>
</svg>
