<?xml version="1.0" encoding="utf-8"?>
<!-- Generator: Adobe Illustrator 27.5.0, SVG Export Plug-In . SVG Version: 6.00 Build 0)  -->
<svg version="1.1" id="Capa_1" xmlns="http://www.w3.org/2000/svg" xmlns:xlink="http://www.w3.org/1999/xlink" x="0px" y="0px"
	 viewBox="0 0 1898 2372" style="enable-background:new 0 0 1898 2372;" xml:space="preserve">
<g>
	<path style="fill:#F79B88;" d="M902.898,1755.945c6.133-90.281-13.781-118.261-9.249-180.84c-2.212-37.842-17.975-47.554-37.586-50
		c-25.231-3.157-44.716,37.645-44.716,37.645c7.403,55.362-10.083,101.54-8.911,194.464
		c1.345,106.909,38.135,381.475,38.135,381.475c-1.82,15.63-37.988,31.713-70.47,50.68c0,0-17.338,16.323-15.764,19.999
		c4.146,9.625,8.579,8.983,17.317,8.024c22.312-2.44,41.18-11.872,62.212-16.649c10.725-2.433,32.034-4.886,38.914-14.599
		c8.405-11.84,0.915-25.035-0.234-39.516C872.547,2146.628,896.82,1845.42,902.898,1755.945z"/>
	<path style="fill:#F79B88;" d="M1094.551,2189.369c-32.487-18.967-63.901-34.045-65.709-49.673c0,0,34.018-275.574,35.363-382.483
		c1.171-92.923-16.304-139.101-8.917-194.464c0,0-19.479-40.802-44.699-37.645c-19.621,2.446-35.385,12.158-37.597,50
		c4.543,62.579-15.372,90.559-9.244,180.84c6.139,90.289,28.342,390.684,28.342,390.684c-1.133,14.481-8.634,27.677-0.234,39.516
		c6.902,9.712,28.2,12.166,38.931,14.599c21.026,4.777,39.889,14.208,62.206,16.649c8.737,0.959,13.177,1.601,17.317-8.024
		C1111.895,2205.692,1094.551,2189.369,1094.551,2189.369z"/>
	<path style="fill:#DFDBE1;" d="M900.916,1824.628c-29.464,8.386-69.31,4.771-98.893-5.78
		c7.653,124.792,32.252,317.395,32.252,317.395c-1.819,15.636-31.691,34.159-64.173,53.126c0,0-17.338,16.323-15.764,19.999
		c4.146,9.625,8.579,8.983,17.317,8.024c22.312-2.44,41.18-11.872,62.212-16.649c10.725-2.433,32.034-4.886,38.914-14.599
		c8.405-11.84,0.915-25.035-0.234-39.516C872.547,2146.628,891.634,1947.252,900.916,1824.628z"/>
	<path style="fill:#DFDBE1;" d="M1094.551,2189.369c-32.487-18.967-62.365-37.49-64.179-53.126c0,0,28.674-201.057,36.273-325.424
		c0,0-3.96-8.699-4.32-6.896c-4.652,23.417-85.537,27.68-94.607,8.124c-0.469-1.016-2.658,6.801-2.658,6.801
		c8.748,122.376,27.029,327.78,27.029,327.78c-1.133,14.481-8.634,27.677-0.234,39.516c6.902,9.712,28.2,12.166,38.931,14.599
		c21.026,4.777,39.889,14.208,62.206,16.649c8.737,0.959,13.177,1.601,17.317-8.024
		C1111.895,2205.692,1094.551,2189.369,1094.551,2189.369z"/>
	<g>
		<path style="fill:#122444;" d="M1061.28,1878.557c0.468-4.99,0.909-9.949,1.345-14.86c-20.487,14.329-71.647,17.145-93.719,6.583
			c0.382,4.794,0.752,9.647,1.144,14.544C992.232,1894.523,1040.358,1891.87,1061.28,1878.557z"/>
		<path style="fill:#122444;" d="M967.099,1846.49c0.349,4.761,0.713,9.587,1.101,14.498c21.963,11.112,75.138,8.16,95.26-6.844
			c0.414-5.041,0.817-10.02,1.198-14.925C1045.266,1855.292,988.816,1858.482,967.099,1846.49z"/>
	</g>
	<g>
		<path style="fill:#122444;" d="M805.351,1865.242c0.393,4.84,0.801,9.718,1.215,14.645c22.138,12.254,68.367,14.353,89.567,4.704
			c0.403-4.922,0.807-9.789,1.199-14.607C876.409,1880.5,827.401,1878.342,805.351,1865.242z"/>
		<path style="fill:#122444;" d="M898.094,1860.639c0.403-4.949,0.795-9.81,1.16-14.604c-20.269,11.997-74.076,9.677-95.744-4.911
			c0.354,4.826,0.708,9.721,1.1,14.674C826.519,1869.496,877.374,1871.721,898.094,1860.639z"/>
	</g>
	<path style="fill:#0C1E3D;" d="M833.758,2138.689c-10.954,8.958-28.941,29.235-63.655,50.68
		c-13.699,8.108-24.594,16.055-25.444,19.961c-2.506,11.442,16.135,12.213,24.882,11.257c22.301-2.443,42.717-12.272,63.743-17.053
		c10.731-2.432,34.371-5.632,41.256-15.339c7.376-10.388,4.62-29.701-1.808-39.772
		C847.97,2164.674,833.758,2138.689,833.758,2138.689z"/>
	<path style="fill:#0C1E3D;" d="M1030.896,2138.689c16.897,14.925,63.655,50.68,63.655,50.68
		c13.705,8.108,24.588,16.055,25.443,19.961c2.511,11.442-16.135,12.213-24.877,11.257c-22.317-2.443-42.728-12.272-63.759-17.053
		c-10.736-2.432-34.366-5.632-41.251-15.339c-7.37-10.388-4.597-29.979,1.836-40.05
		C1016.935,2155.27,1030.896,2138.689,1030.896,2138.689z"/>
	<g>
		<g>
			<g>
				<path style="fill:#F79B88;" d="M811.953,1568.138c7.653,44.982,23.107,52.927,57.849,54.975
					c34.753,2.043,19.272-5.452,23.489-40.647c-0.311-17.276,28.488-294.721,30.765-311.989
					c16.962-128.73,24.294-214.038,24.294-214.038l-1.34-173.116l-117.724-0.006c-13.503,47.938-46.666,170.758-46.666,278.238
					C782.62,1327.712,809.23,1542.539,811.953,1568.138z"/>
			</g>
			<g>
				<path style="fill:#F79B88;" d="M1054.689,1568.138c-7.653,44.982-23.107,52.927-57.849,54.975
					c-34.753,2.043-19.272-5.452-23.482-40.647c0.305-17.276-28.489-294.721-30.771-311.989
					c-16.973-128.73-24.3-214.038-24.3-214.038l-110.419-89.142l21.419-83.979l208.059,0.006
					c13.515,47.932,46.677,170.752,46.677,278.233C1084.022,1327.712,1057.413,1542.539,1054.689,1568.138z"/>
			</g>
		</g>
	</g>
	<g>
		<path style="fill:#7C75B1;" d="M847.125,508.939c-59.461,0.032-84.425,97.224-94.993,133.521
			c-10.088,34.597-29.84,93.615-41.768,127.417c-7.381,20.901-1.58,29.287,21.739,44.079c35.815,22.712,59.499,5.414,65.437-7.83
			c20.786-46.312,100.936-184.577,109.912-227.563C917.192,531.868,847.125,508.939,847.125,508.939z"/>
		<path style="fill:#F79B88;" d="M763.331,789.674c-35.199-19.774-45.091,22.371-55.893,46.069
			c-14.68,32.171-65.448,134.368-72.469,142.089c-7.005,7.713-13.601,17.126-25.138,23.907c-13.335,7.83-23.09,16.197-31.256,29.259
			c-3.018,4.837-7.484,14.734-4.75,17.36c4.821,4.617,8.193,0.188,13.357-7.833c1.405-2.195,7.517-7.212,10.132-11.828
			c-4.02,15.451-25.531,35.461-29.023,54.477c-2.113,11.532-0.283,19.318,12.496,20.612c15.639,1.585,16.537-11.523,27.454-18.681
			c4.401-2.882,13.977-2.988,22.998-17.613c5.039-8.176,10.077-18.597,12.904-27.652c3.611-11.559,7.926-27.277,12.027-35.657
			c4.091-8.38,89.502-111.337,103.229-141.171C775.675,827.665,777.494,797.622,763.331,789.674z"/>
	</g>
	<path style="fill:#7C75B1;" d="M772.875,748.526c-35.2-19.773-55.19,6.128-64.952,30.278
		c-53.388,132.064-85.346,139.437-93.549,175.494c-9.832,33.043,55.839,67.202,77.033,49.727
		c33.603-16.685,94.911-173.516,106.133-197.901C813.816,770.783,787.037,756.474,772.875,748.526z"/>
	<path style="fill:#EAB492;" d="M1070.932,165.122c17.921,18.967,15.688,41.077,14.517,64.538
		c-0.943,18.537,5.147,35.693,15.192,51.046c19.25,29.414,50.419,50.547,63.334,84.159c12.578,32.759,0.73,52.339-11.739,81.691
		c-10.447,24.594-9.168,46.181-2.925,71.331c7.021,28.235,14.048,54.302,14.31,84.286c0.098,12.145,2.931,30.047-1.231,41.497
		c-5.273,14.511-23.87,25.806-36.67,32.424c-22.148,11.453-48.719,5.817-64.254-14.269c-20.558-26.596-13.357-64.383-37.585-88.955
		c-26.452-26.811-51.999-56.56-56.068-95.859c-2.647-25.716,7.163-50.615,4.287-76.426c-2.419-21.682-18.139-40.63-22.993-62.274
		c-6.041-26.936-7.985-51.481-2.478-79.262c3.028-15.255,5.42-29.548,11.603-44.228c10.022-23.858,15.121-45.612,40.962-56.1
		C1022.736,149.162,1052.069,145.161,1070.932,165.122z"/>
	<g>
		<path style="fill:#F79B88;" d="M1038.838,499.49c-5.371,0.003-59.886-39.987-35.281-139.932l-11.815-14.762
			c-28.162,7.04-95.222,6.864-82.808,35.006c48.855,110.782-35.015,125.906-39.296,125.906c-19.348,0-15.83,92.683,60.742,92.683
			c76.582,0,99.132-69.764,103.806-79.91C1039.513,506.907,1038.838,499.49,1038.838,499.49z"/>
		<path style="fill:#DAD6D2;" d="M1006.874,460.189c-9.375-22.518-14.457-55.422-3.318-100.631l-9.783-12.223
			c-30.15,5.194-60.61,11.137-86.109,23.81c-0.495,2.549-0.169,5.406,1.27,8.658c9.652,21.892,13.759,40.355,15.088,55.771
			c11.924,0.664,25.612-0.49,37.967,1.484C980.101,439.94,996.089,450.88,1006.874,460.189z"/>
	</g>
	<path style="fill:#827AB9;" d="M1038.838,499.49c35.32,3.805,55.893,9.448,60.496,23.192c5.208,15.516-20.394,78.354-36.463,222.2
		c-5.905,52.876,22.944,106.291-25.526,138.442c0,0-136.93,32.953-208.059-0.006c-21.419-9.927-25.558-68.863-27.628-97.774
		c-14.925-207.735,39.34-271.219,45.468-276.606c0,0,13.177-1.514,22.513-3.23c5.752-1.057,35.777-11.565,47.967-34.116
		l89.269-11.404C1007.473,471.593,1038.838,499.49,1038.838,499.49z"/>
	<path style="fill:#DAD6D2;" d="M1062.871,744.882c11.652-104.324,28.303-166.01,34.6-197.971
		c-5.283,0.626-10.502,1.607-15.578,3.233c-0.011,0.006-0.011,0.008-0.022,0.013c-24.943,30.303-31.463,63.819-35.565,101.854
		c-4.026,37.359,1.449,157.115,3.159,172.977c3.53,32.898-12.12,58.336-12.12,58.336
		C1085.814,851.173,1056.966,797.758,1062.871,744.882z"/>
	<path style="fill:#827AB9;" d="M1072.485,508.939c73.172-9.448,70.306,77.886,80.465,114.303
		c9.669,34.712,19.022,109.831,30.553,143.769c7.136,20.988,8.509,33.56-14.991,48.085c-36.082,22.292-63.04,5.744-68.819-7.566
		c-20.242-46.556-56.389-185.881-64.865-228.968C1025.618,531.754,1072.485,508.939,1072.485,508.939z"/>
	<path style="fill:#F79B88;" d="M1137.579,790.477c35.445-19.356,44.824,22.906,55.348,46.726
		c14.304,32.339,63.862,135.13,70.781,142.933c6.923,7.8,13.411,17.286,24.872,24.204c13.236,7.986,22.895,16.464,30.896,29.627
		c2.964,4.867,7.31,14.825,4.543,17.415c-4.864,4.557-8.193,0.087-13.259-7.991c-1.383-2.214-7.441-7.299-9.99-11.943
		c3.829,15.491,25.101,35.758,28.369,54.807c1.983,11.561,0.066,19.329-12.724,20.468c-15.66,1.403-16.407-11.72-27.236-19
		c-4.358-2.936-13.934-3.159-22.791-17.888c-4.946-8.236-9.848-18.714-12.583-27.805c-3.476-11.595-7.593-27.367-11.603-35.793
		c-3.998-8.427-88.167-112.383-101.557-142.378C1124.788,828.322,1123.334,798.253,1137.579,790.477z"/>
	<path style="fill:#827AB9;" d="M1273.229,954.502c-41.104-39.091-73.635-143.928-85.139-169.96
		c-10.524-23.82-24.882-48.389-60.333-29.038c-14.26,7.773-43.909,16.491-28.063,52.026
		c10.306,23.101,81.304,171.836,108.377,196.495C1235.131,1028.684,1286.716,967.333,1273.229,954.502z"/>
	<path style="fill:#EAB492;" d="M929.535,231.834c-9.037,0.199-18.052,1.057-26.849,2.432c-14.549,2.277-45.255,4.387-46.676,23.197
		l-2.125,27.601c-5.954,15.374,6.874,100.353,75.65,114.082V231.834z"/>
	<g>
		<path style="fill:#F79B88;" d="M1010.916,265.614c-15.721-37.065-46.432-41.676-46.432-41.676
			c-6.242-1.446-12.496-2.557-18.673-3.29v-0.686c-1.231,0.074-2.478,0.207-3.71,0.321c-1.236-0.114-2.478-0.248-3.709-0.321v0.686
			c-6.177,0.733-12.43,1.844-18.672,3.29c0,0-30.711,4.611-46.437,41.676c-10.023,23.641-4.854,34.601-3.459,56.849
			c1.324,21.19,0.621,25.436,4.456,42.663c4.875,21.96,23.346,40.186,42.286,53.894c8.77,5.757,17.338,7.95,25.536,7.571
			c8.193,0.379,16.761-1.814,25.542-7.571c18.934-13.708,37.4-31.934,42.286-53.894c3.819-17.227,3.127-21.473,4.451-42.663
			C1015.775,300.215,1020.944,289.255,1010.916,265.614z"/>
	</g>
	<path style="fill:#FBC19C;" d="M1016.951,174.628c-14.097-13.187-87.993-23.919-128.934,6.226
		c-32.269,23.752-45.473,57.364-43.392,97.164c0.414,7.855,1.318,15.679,2.549,23.439c0.708,4.415,6.047,24.48,6.047,24.48
		c36.545-9.53,28.063-55.278,68.525-56.697c34.361-1.207,43.349-29.011,43.349-29.011c5.344,38.351,11.673,49.019,28.009,58.723
		c12.158,7.223,8.378,39.233,15.301,31.626c8.192-9.021,4.603,9.775,4.603,9.775s-6.711,13.158-2.544,9.818
		c-5.365,9.838-5.594,28.9-5.594,28.9c25.487-22.483,42.912-48.717,47.325-84.828
		C1061.809,215.291,1030.918,187.676,1016.951,174.628z"/>
	<g>
		<path style="fill:#F79B88;" d="M1007.702,332.786c3.715-15.089,26.942-28.742,29.916-5.017
			c2.456,19.542-20.068,59.9-30.145,23.003L1007.702,332.786z"/>
	</g>
	<path style="fill:#DAD6D2;" d="M878.528,502.83c0,0,20.874,41.385,101.927,22.39c45.299-10.616,55.054-28.788,55.054-28.788
		l-8.301-8.053L878.528,502.83z"/>
	<path style="fill:#827AB9;" d="M923.505,452.182c0.321-3.693,0.937-13.907,0.67-16.608c-2.43,1.239-31.343-0.826-26.865,24.615
		c2.2,12.502,2.386,17.434-7.43,20.888c-6.34,2.228-9.26,14.645-11.352,21.753c0,0,77.044,48.218,148.68-14.451
		c23.45-20.52-7.915-34.026-7.915-34.026c-2.985-8.367,3.356-17.099,0-25.191c-6.591-15.892-16.091-12.308-21.887-12.768
		c0.24,13.424-1.373,17.181-15.535,24.61C971.544,446.43,943.382,454.805,923.505,452.182z"/>
	<g>
		<path style="fill:#122444;" d="M919.72,1392.867l26.222-242.886l2.408-93.542l-1.34-173.116l-117.724-0.006
			c-6.711,23.843-20.7,65.628-33.065,114.832c-12.931,59.445-23.346,125.126-23.346,161.078c0,73.934-6.09,151.036,0,223.284
			C772.875,1382.513,797.556,1405.418,919.72,1392.867z"/>
		<path style="fill:#122444;" d="M919.131,1094.456c0,0,20.492,223.461,26.811,294.517c95.881,25.411,155.026-12.967,156.388-14.236
			c2.239-73.509-6.319-140.929-6.319-213.877c0-107.481-40.832-232.675-54.341-280.613l-212.384,3.072l-24.937,84.175
			L919.131,1094.456z"/>
	</g>
	<polygon style="fill:#031533;" points="1049.819,909.326 821.584,909.326 821.584,876.878 1046.023,876.878 	"/>
	<g>
		<g>
			<g>
				
					<path style="fill:none;stroke:#540806;stroke-width:2.123;stroke-linecap:round;stroke-linejoin:round;stroke-miterlimit:10;" d="
					M900.513,329.991c0,0-1.406-4.491-6.439-4.491c-5.044,0-5.861,4.491-5.861,4.491"/>
			</g>
			<g>
				
					<path style="fill:none;stroke:#540806;stroke-width:2.123;stroke-linecap:round;stroke-linejoin:round;stroke-miterlimit:10;" d="
					M961.085,329.991c0,0,1.394-4.491,6.427-4.491c5.044,0,5.872,4.491,5.872,4.491"/>
			</g>
			<g>
				<g>
					<path style="fill:#FBC19C;" d="M954.031,313.322c4.323,0.147,7.626-3.203,12.152-3.014c4.534,0.19,9.153,3.785,13.543,1.965
						c1.536-0.637,2.367-2.155,1.52-3.737c-2.405-4.493-10.279-6.12-15.064-6.014c-5.131,0.114-12.409,3.23-13.979,8.402
						C951.836,312.138,952.832,313.281,954.031,313.322L954.031,313.322z"/>
				</g>
			</g>
			<g>
				<g>
					<path style="fill:#FBC19C;" d="M908.043,310.924c-1.49-4.925-8.037-7.815-12.881-8.294c-5.007-0.495-13.616,1.161-16.15,5.906
						c-0.845,1.583-0.017,3.099,1.52,3.737c3.938,1.634,8.383-1.151,12.385-1.819c5.08-0.848,8.548,3.028,13.299,2.867
						C907.416,313.281,908.41,312.138,908.043,310.924L908.043,310.924z"/>
				</g>
			</g>
		</g>
		<path style="fill:#F58D77;" d="M995.805,341.913c-13.716-7.408-46.219,17.67-24.698,29.581
			C992.624,383.403,1009.532,349.323,995.805,341.913z"/>
		<path style="fill:#F58D77;" d="M870.94,341.466c0.452,7.56,1.106,13.242,3.426,23.681c0.441,1.991,1.04,3.949,1.7,5.886
			c5.12,3.331,11.597,4.322,18.585,0.46C915.661,359.858,885.162,335.681,870.94,341.466z"/>
		<g>
			<g>
				<g>
					<path style="fill:#BDB7B2;" d="M908.369,313.142c1.322,2.535,2.949,4.879,4.332,7.384c1.547,2.802,2.574,5.749,3.798,8.689
						c0.114,0.274,0.595,0.277,0.567-0.077c-0.464-5.941-4.564-11.909-8.641-16.04C908.396,313.069,908.351,313.107,908.369,313.142
						L908.369,313.142z"/>
				</g>
			</g>
			<g>
				<g>
					<path style="fill:#BDB7B2;" d="M920.291,342.046c0.67,7.553-2.117,13.813-2.995,21.081c-0.576,4.77,7.769,4.999,10.674,3.88
						c0.255-0.098,0.159-0.495-0.115-0.418c-2.211,0.623-9.341,0.456-9.23-3.462c0.067-2.346,0.921-4.732,1.514-6.982
						c1.261-4.785,1.442-9.286,0.506-14.147C920.607,341.799,920.273,341.843,920.291,342.046L920.291,342.046z"/>
				</g>
			</g>
		</g>
		<g>
			<path style="fill:#F0EFEE;" d="M911.38,378.849c15.383,2.296,42.003-3.884,42.003-3.884
				c2.064,21.611-26.157,32.544-30.858,20.882C917.54,383.507,911.38,378.849,911.38,378.849z"/>
		</g>
		<g>
			<g>
				<g>
					<path style="fill:#DAD6D2;" d="M931.406,407.347c2.949-1.641,5.829-1.968,9.115-2.191c0.698-0.047,0.876-0.855,0.339-1.252
						c-3.359-2.48-7.817-0.344-10.495,2.095C929.628,406.672,930.572,407.811,931.406,407.347L931.406,407.347z"/>
				</g>
			</g>
		</g>
	</g>
</g>
</svg>
