<?xml version="1.0" encoding="utf-8"?>
<!-- Generator: Adobe Illustrator 27.5.0, SVG Export Plug-In . SVG Version: 6.00 Build 0)  -->
<svg version="1.1" id="Capa_1" xmlns="http://www.w3.org/2000/svg" xmlns:xlink="http://www.w3.org/1999/xlink" x="0px" y="0px"
	 viewBox="0 0 1898 2372" style="enable-background:new 0 0 1898 2372;" xml:space="preserve">
<g>
	<g>
		<path style="fill:#AF776E;" d="M1133.346,824.789c33.833-18.48,42.785,21.867,52.832,44.607
			c13.656,30.872,77.333,150.992,83.941,158.441c6.604,7.449,12.798,16.502,23.736,23.104c12.632,7.626,21.857,15.723,29.491,28.282
			c2.83,4.649,6.981,14.152,4.342,16.624c-4.649,4.352-7.82,0.082-12.657-7.628c-1.321-2.116-7.098-6.967-9.533-11.404
			c3.658,14.795,23.962,34.14,27.081,52.326c1.893,11.033,0.06,18.447-12.153,19.536c-14.944,1.338-15.658-11.183-25.999-18.141
			c-4.164-2.8-13.302-3.012-21.748-17.071c-4.728-7.863-9.413-17.867-12.011-26.544c-3.323-11.072-7.261-26.125-11.079-34.167
			c-3.819-8.046-100.538-129.283-113.312-157.919C1121.142,860.914,1119.742,832.214,1133.346,824.789z"/>
		<path style="fill:#AF776E;" d="M1066.969,557.296c55.929-6.046,55.057,98.727,64.743,133.488
			c9.246,33.14,24.932,107.113,35.943,139.512c6.809,20.03,15.154,31.926-2.734,46.462c-17.888,14.53-32.492,4.08-38.016-8.631
			c-19.318-44.441-69.057-208.512-77.146-249.646C1040.973,573.803,1066.969,557.296,1066.969,557.296z"/>
	</g>
	<path style="fill:#CBC7CE;" d="M1074.293,726.239c11.21-2.484,26.146-5.888,37.515-11.433c8.04-3.92,19.729-12.747,26.337-17.731
		c-0.667-2.533-3.723-10.812-4.333-13.008c-9.688-34.764-5.619-122.594-58.946-127.809c0,0-33.892,17.546-25.106,62.223
		C1053.33,636.633,1060.7,681.049,1074.293,726.239z"/>
	<path style="fill:#AF776E;" d="M764.013,824.789c-33.83-18.48-42.788,21.867-52.835,44.607
		c-13.653,30.872-77.331,150.992-83.938,158.441c-6.605,7.449-12.801,16.502-23.739,23.104
		c-12.629,7.626-21.854,15.723-29.488,28.282c-2.83,4.649-6.981,14.152-4.341,16.624c4.646,4.352,7.819,0.082,12.656-7.628
		c1.321-2.116,7.098-6.967,9.533-11.404c-3.658,14.795-23.962,34.14-27.081,52.326c-1.893,11.033-0.06,18.447,12.153,19.536
		c14.944,1.338,15.658-11.183,26-18.141c4.164-2.8,13.302-3.012,21.75-17.071c4.725-7.863,9.41-17.867,12.011-26.544
		c3.32-11.072,7.259-26.125,11.077-34.167c3.819-8.046,100.538-129.283,113.312-157.919
		C776.217,860.914,777.617,832.214,764.013,824.789z"/>
	<path style="fill:#AF776E;" d="M830.389,557.296c-55.929-6.046-55.057,98.727-64.743,133.488
		c-9.244,33.14-24.931,107.113-35.943,139.512c-6.809,20.03-15.154,31.926,2.734,46.462c17.889,14.53,32.492,4.08,38.016-8.631
		c19.318-44.441,69.056-208.512,77.142-249.646C856.385,573.803,830.389,557.296,830.389,557.296z"/>
	<path style="fill:#CBC7CE;" d="M822.047,733.132c14.767-48.594,21.02-95.426,25.549-114.652
		c12.213-51.811-25.106-62.223-25.106-62.223c-49.561,8.767-50.269,94.228-59.957,128.991c-1.343,4.815-3.543,16.565-5.123,22.857
		C774.593,718.975,800.353,731.493,822.047,733.132z"/>
	<g>
		<path style="fill:#AF776E;" d="M1044.824,810.795c15.775-81.514,27.111-238.686,22.145-253.499c0,0-19.021-8.503-43.659-13.008
			c-6.03,0.003-27.702-9.216-40.701-23.872c-0.828-2.476-15.71-47.682-5.245-59.644c16.295-18.902,24.561-26.539,12.547-36.267
			c-11.899-9.628-26.165-15.538-41.235-19.86c-15.064,4.322-29.33,10.233-41.224,19.86c-12.019,9.729-3.756,17.366,12.542,36.267
			c13.024,15.089,3.919,27.078-5.254,59.649c-13.002,14.653-34.668,23.869-40.693,23.867c-24.638,4.505-43.659,13.008-43.659,13.008
			c-4.966,14.813,6.37,171.986,22.145,253.499c9.647,49.861-13.8,160.253-13.8,160.253c25.481,39.249,148.024,72.139,218.079,0
			C1056.813,971.048,1035.177,860.656,1044.824,810.795z"/>
		<path style="fill:#DAD6D2;" d="M977.364,460.772c16.295-18.902,24.561-26.539,12.547-36.267
			c-11.899-9.628-26.165-15.538-41.235-19.86c-15.064,4.322-29.33,10.233-41.224,19.86c-12.019,9.729-3.756,17.366,12.542,36.267
			c0.499,0.577,0.853,1.31,1.253,1.993c0.139-0.003,4.11,9.061,22.168,14.759c24.354,7.691,31.465,26.47,36.618,34.205v-0.003
			C973.739,489.699,970.007,469.302,977.364,460.772z"/>
	</g>
	<g>
		<path style="fill:#AF776E;" d="M1016.227,315.344c-15.241-35.935-45.013-40.404-45.013-40.404
			c-6.049-1.4-12.111-2.479-18.104-3.184v-0.673c-1.195,0.073-2.396,0.207-3.595,0.316c-1.198-0.109-2.4-0.243-3.595-0.316v0.673
			c-5.992,0.705-12.055,1.784-18.104,3.184c0,0-29.771,4.469-45.012,40.404c-9.721,22.916-4.709,33.541-3.359,55.112
			c1.283,20.541,0.607,24.656,4.317,41.357c4.734,21.285,22.636,38.958,40.995,52.244c8.501,5.583,16.816,7.708,24.757,7.343
			c7.942,0.365,16.255-1.76,24.758-7.343c18.36-13.286,36.262-30.959,40.995-52.244c3.709-16.701,3.034-20.816,4.317-41.357
			C1020.936,348.885,1025.947,338.26,1016.227,315.344z"/>
	</g>
	<path style="fill:#34002E;" d="M1050.312,325.198c-2.473-12.008,3.159-23.82,5.663-36.145
		c2.614-12.885-12.564-19.906-24.474-26.195c-18.515-9.767-32.972-40.38-44.188-34.533c-12.316,6.419-18.54-11.866-37.635,6.474
		c-19.098-18.341-25.319-0.055-37.635-6.474c-11.216-5.847-25.672,24.766-44.187,34.533c-11.911,6.289-25.109,16.548-22.495,29.431
		c2.503,12.327,5.161,32.514,2.688,44.525c-2.871,13.945-5.019,24.997,2.163,36.937c2.996,4.965,19.384,45.68,43.283,59.241
		c0,0-5.708-9.772-9.407-21.179c-3.699-11.406-4.467-30.596-4.467-30.596c10.881,1.817,5.889-7.542,9.435-18.063
		c5.576-16.549-4.679-20.503-0.607-31.447c3.783-10.181,11.91-10.739,20.609-16.799c7.912-5.518,9.418-18.49,18.098-22.439
		c5.518-2.52,13.912,4.676,22.521-2.893c8.607,7.569,17.001,0.373,22.521,2.893c8.678,3.949,10.186,16.921,18.095,22.439
		c8.699,6.06,16.826,6.618,20.61,16.799c4.074,10.943-6.183,14.898-0.605,31.447c3.543,10.521-1.449,19.88,9.434,18.063
		c0,0-0.768,19.19-4.467,30.596c-3.699,11.407-9.407,21.179-9.407,21.179c23.897-13.56,39.568-60.752,42.561-65.714
		C1055.607,355.339,1053.183,339.139,1050.312,325.198z"/>
	<path style="fill:#46213F;" d="M860.839,322.984c5.817,6.926-6.681,14.751-12.787,13.83c-2.642-0.397-7.493-2.576-9.797-4.281
		c-4.453-3.296-4.107-7.526-7.062-11.183c-6.806,12.841-19.798,1.547-21.802-8.367c-0.896-4.458,1.209-13.509-0.912-16.761
		c-2.541-3.895-9.923-4.448-13.386-8.574c-11.382-13.555,5.227-18.624,2.467-31.874c-2.41-11.577-14.198-20.127-4.938-32.102
		c7.92-10.241,26.794-8.841,34.758,0.495c-7.517-10.649,4.009-25.517,14.378-28.655c6.229-1.888,12.689,0.014,18.855-2.443
		c4.753-1.893,8.677-5.659,13.539-7.416c5.251-1.893,11.393-2.421,15.669,1.779c3.622,3.554,2.623,10.404,5.629,13.402
		c3.609,3.603,12.019,0.953,16.753,2.993c4.534,1.956,8.037,5.951,8.982,11.251c0.85,4.766-0.591,8.231-3.097,12.025
		c13.91-2.222,18.918,12.376,10.851,21.748c-7.103,8.245-19.242,10.554-26.682,18.355c6.264,12.139-12.733,23.093-19.953,28.663
		c-5.605,4.322-4.616,7.457-7.231,14.027C874.312,311.825,864.215,327.004,860.839,322.984z"/>
	<path style="fill:#DFDBE1;" d="M1074.865,556.258c0,0-20.288-9.042-46.573-13.833c-6.975,0.199-15.887-4.039-23.984-9.089
		c-11.995,10.858-29.031,15.235-44.664,16.006c-18.212,0.896-52.358,0.978-64.134-17.197l-0.003-0.008
		c-11.246,6.559-22.453,10.29-26.443,10.287c-26.285,4.79-46.573,13.833-46.573,13.833c-5.151,15.304,6.131,173.503,22.199,261.962
		c0,0,27.198,26.176,104.79,26.176c77.589,0,103.183-26.176,103.183-26.176C1068.737,729.76,1080.013,571.562,1074.865,556.258z"/>
	<g>
		<path style="fill:#AF776E;" d="M853.852,2062.216c3.633,14.424-0.825,44.479-0.825,44.479
			c-1.733,14.923-30.248,32.604-61.261,50.71c0,0-16.554,15.579-15.042,19.092c3.952,9.184,8.189,8.571,16.534,7.659
			c21.296-2.331,39.304-11.33,59.385-15.89c10.238-2.328,30.578-4.671,37.15-13.942c8.018-11.3,0.866-23.894-0.221-37.721
			l3.976-64.078L853.852,2062.216z"/>
		<path style="fill:#370000;" d="M838.225,2151.708c-11.347,4.077-34.5,14.517-46.454,5.698
			c-13.081,7.738-23.477,15.328-24.294,19.057c-2.391,10.919,15.41,11.654,23.755,10.739c21.295-2.329,40.78-11.711,60.855-16.273
			c10.241-2.323,32.806-5.374,39.378-14.639c7.038-9.922,4.881-25.063-1.258-34.671
			C878.131,2137.957,856.761,2145.048,838.225,2151.708z"/>
		<path style="fill:#AF776E;" d="M1039.399,2062.216c-3.633,14.424,0.822,44.479,0.822,44.479
			c1.732,14.923,30.248,32.604,61.264,50.71c0,0,16.551,15.579,15.04,19.092c-3.949,9.184-8.187,8.571-16.532,7.659
			c-21.299-2.331-39.301-11.33-59.38-15.89c-10.243-2.328-30.586-4.671-37.155-13.942c-8.021-11.3-0.866-23.894,0.218-37.721
			l-3.974-64.078L1039.399,2062.216z"/>
		<path style="fill:#370000;" d="M1055.027,2151.708c11.344,4.077,34.497,14.517,46.454,5.698
			c13.079,7.738,23.474,15.328,24.291,19.057c2.391,10.919-15.407,11.654-23.75,10.739c-21.301-2.329-40.786-11.711-60.858-16.273
			c-10.243-2.323-32.809-5.374-39.378-14.639c-7.04-9.922-4.881-25.063,1.258-34.671
			C1015.118,2137.957,1036.487,2145.048,1055.027,2151.708z"/>
		<path style="fill:#8A3033;" d="M874.015,1523.313c-24.079-3.01-42.67,35.938-42.67,35.938
			c7.059,52.843-9.631,96.921-8.514,185.633c1.286,102.045,27.963,339.611,27.963,339.611c15.966,2.941,35.262,10.02,48.989-6.305
			c0,0,13.092-248.333,18.945-334.518c5.853-86.184-13.155-112.892-8.824-172.628C907.79,1534.923,892.74,1525.65,874.015,1523.313z
			"/>
		<path style="fill:#A03A3E;" d="M1021.527,1523.313c24.082-3.01,42.673,35.938,42.673,35.938
			c-7.06,52.843,9.63,96.921,8.514,185.633c-1.285,102.045-27.96,339.611-27.96,339.611c-15.963,2.941-35.265,10.02-48.992-6.305
			c0,0-13.09-248.333-18.945-334.518c-5.85-86.184,13.155-112.892,8.825-172.628
			C987.754,1534.923,1002.805,1525.65,1021.527,1523.313z"/>
		<path style="fill:#8A3033;" d="M831.919,1564.395c7.308,42.935,22.058,50.522,55.221,52.475
			c33.162,1.953,18.395-5.202,22.415-38.8c-0.289-16.492,27.197-281.329,29.371-297.818c16.2-122.883,16.257-208.838,16.257-208.838
			l5.537-170.036l-111.383-20.013c-12.774,42.374-45.416,192.317-45.416,294.917C803.921,1334.885,829.31,1539.951,831.919,1564.395
			z"/>
		<path style="fill:#A03A3E;" d="M1063.625,1564.395c-7.307,42.935-22.056,50.522-55.221,52.475
			c-33.162,1.953-18.395-5.202-22.415-38.8c0.291-16.492-27.198-281.329-29.371-297.818c-16.2-122.883-7.94-207.768-7.94-207.768
			L844.072,901.586l5.265-20.22c0,0,23.967,20.013,98.43,20.013s98.43-20.013,98.43-20.013
			c12.782,22.366,45.427,192.317,45.427,294.917C1091.624,1334.885,1066.234,1539.951,1063.625,1564.395z"/>
		<path style="fill:#8A3033;" d="M1042.915,863.077c0,0-40.771,23.437-94.974,23.437c-54.205,0-95.323-23.437-95.323-23.437
			l-3.281,18.289c0,0,18.572,28.581,99.008,28.581c80.438,0,97.852-28.581,97.852-28.581L1042.915,863.077z"/>
	</g>
	<g>
		<path style="fill:#AF776E;" d="M885.925,380.459c-3.6-14.628-26.125-27.865-29.011-4.864
			c-2.378,18.945,19.462,58.072,29.229,22.303L885.925,380.459z"/>
	</g>
	<g>
		<path style="fill:#AF776E;" d="M1013.631,380.459c3.603-14.628,26.125-27.865,29.012-4.864
			c2.378,18.945-19.46,58.072-29.229,22.303L1013.631,380.459z"/>
	</g>
	<path style="fill:#46213F;" d="M1038.517,322.984c-5.815,6.926,6.681,14.751,12.789,13.83c2.639-0.397,7.496-2.576,9.794-4.281
		c4.456-3.296,4.11-7.526,7.065-11.183c6.803,12.841,19.795,1.547,21.802-8.367c0.896-4.458-1.212-13.509,0.913-16.761
		c2.541-3.895,9.919-4.448,13.386-8.574c11.379-13.555-5.227-18.624-2.47-31.874c2.413-11.577,14.201-20.127,4.938-32.102
		c-7.917-10.241-26.792-8.841-34.755,0.495c7.517-10.649-4.012-25.517-14.375-28.655c-6.234-1.888-12.694,0.014-18.861-2.443
		c-4.753-1.893-8.675-5.659-13.539-7.416c-5.248-1.893-11.389-2.421-15.668,1.779c-3.622,3.554-2.62,10.404-5.627,13.402
		c-3.612,3.603-12.019,0.953-16.755,2.993c-4.535,1.956-8.035,5.951-8.98,11.251c-0.852,4.766,0.591,8.231,3.094,12.025
		c-13.907-2.222-18.918,12.376-10.848,21.748c7.103,8.245,19.242,10.554,26.683,18.355c-6.267,12.139,12.73,23.093,19.95,28.663
		c5.608,4.322,4.619,7.457,7.231,14.027C1025.043,311.825,1035.142,327.004,1038.517,322.984z"/>
	<g>
		<g>
			<g>
				<g>
					<path style="fill:#DAD6D2;" d="M944.469,445.168c2.862-1.586,5.653-1.908,8.84-2.123c0.677-0.046,0.849-0.829,0.329-1.214
						c-3.257-2.406-7.578-0.329-10.177,2.03C942.742,444.513,943.66,445.616,944.469,445.168L944.469,445.168z"/>
				</g>
			</g>
		</g>
		<g>
			<g>
				<g>
					<g>
						<path style="fill:#23001D;" d="M975.814,357.326c4.189,0.142,7.388-3.106,11.773-2.922c4.396,0.185,8.87,3.671,13.127,1.908
							c1.49-0.617,2.294-2.089,1.474-3.623c-2.329-4.356-9.964-5.935-14.601-5.833c-4.971,0.11-12.027,3.132-13.544,8.145
							C973.687,356.179,974.651,357.286,975.814,357.326L975.814,357.326z"/>
					</g>
				</g>
			</g>
			<path style="fill:#AF6A5C;" d="M1006.852,382.698c-13.299-7.179-44.808,17.134-23.946,28.677
				C1003.766,422.92,1020.154,389.883,1006.852,382.698z"/>
			<g>
				<g>
					<g>
						<path style="fill:#23001D;" d="M923.313,355.001c-1.445-4.775-7.791-7.576-12.488-8.04c-4.856-0.48-13.201,1.127-15.66,5.729
							c-0.82,1.534-0.017,3.005,1.474,3.623c3.82,1.582,8.129-1.118,12.01-1.766c4.925-0.822,8.287,2.935,12.894,2.779
							C922.705,357.286,923.669,356.179,923.313,355.001L923.313,355.001z"/>
					</g>
				</g>
			</g>
			<path style="fill:#AF6A5C;" d="M890.501,382.698c13.302-7.179,44.814,17.134,23.946,28.677
				C893.589,422.92,877.199,389.883,890.501,382.698z"/>
			<g>
				<g>
					<g>
						
							<path style="fill:none;stroke:#010000;stroke-width:2.0581;stroke-linecap:round;stroke-linejoin:round;stroke-miterlimit:10;" d="
							M914.733,373.819c0,0-1.365-4.355-6.248-4.355c-4.883,0-5.679,4.355-5.679,4.355"/>
					</g>
					<g>
						
							<path style="fill:none;stroke:#010000;stroke-width:2.0581;stroke-linecap:round;stroke-linejoin:round;stroke-miterlimit:10;" d="
							M982.626,373.819c0,0,1.359-4.355,6.243-4.355c4.884,0,5.681,4.355,5.681,4.355"/>
					</g>
				</g>
			</g>
		</g>
		<g>
			<g>
				<g>
					<path style="fill:#BDB7B2;" d="M929.443,356.664c3.329,5.953,7.917,10.819,10.532,17.229c0.108,0.265,0.589,0.267,0.55-0.074
						c-0.751-6.55-6.641-12.652-11.027-17.197C929.469,356.593,929.423,356.63,929.443,356.664L929.443,356.664z"/>
				</g>
			</g>
			<g>
				<g>
					<path style="fill:#BDB7B2;" d="M943.648,386.334c0.442,4.729-0.09,9.247-1.36,13.814c-0.579,2.083-2.158,5.516-1.546,7.741
						c1.146,4.165,10.713,2.695,13.375,1.593c0.242-0.1,0.153-0.489-0.112-0.405c-2.671,0.845-5.587,0.633-8.303,0.133
						c-4.149-0.764-3.669-3.595-2.85-6.811c1.416-5.554,2.221-10.4,1.139-16.112C943.955,386.095,943.63,386.138,943.648,386.334
						L943.648,386.334z"/>
				</g>
			</g>
		</g>
		<g>
			<path style="fill:#F9BBB5;" d="M967.15,423.734c0,0-8.043,0.474-12.438-0.891c-1.781-0.553-4.287,0.062-5.815,1.234
				c-1.904-1.326-4.298-2.138-6.382-1.27c-3.894,1.615-12.485,1.155-12.485,1.155s5.322,13.008,18.608,13.008
				S967.15,423.734,967.15,423.734z"/>
			<g>
				<g>
					<path style="fill:#F9BBB5;" d="M967.089,423.63c-10.897,6.776-26.097,8.149-36.998,0.229c-0.113-0.082-0.242,0.096-0.146,0.189
						c4.853,4.707,12.149,5.99,18.644,6.101c5.716,0.098,14.728-1.575,18.646-6.33C967.318,423.719,967.213,423.553,967.089,423.63
						L967.089,423.63z"/>
				</g>
			</g>
		</g>
	</g>
</g>
</svg>
